<svg id="Capa_1" enable-background="new 0 0 512 512" height="512" viewBox="0 0 512 512" width="512" xmlns="http://www.w3.org/2000/svg"><g><g><circle cx="135.601" cy="138.469" fill="#f6de81" r="135.601"/><path d="m165.271 270.81c-9.545 2.141-19.478 3.261-29.669 3.261-74.887 0-135.602-60.715-135.602-135.602s60.715-135.603 135.602-135.603c10.191 0 20.123 1.119 29.669 3.261-60.618 13.538-105.923 67.645-105.923 132.342s45.305 118.804 105.923 132.341z" fill="#f2ce6b"/><g fill="#26457d"><path d="m177.539 160.07h-83.876c-4.268 0-7.726-3.459-7.726-7.726s3.459-7.726 7.726-7.726h83.876c4.268 0 7.726 3.459 7.726 7.726s-3.458 7.726-7.726 7.726z"/><g><path d="m106.197 102.932c-4.268 0-7.726-3.459-7.726-7.726v-22.765c0-4.267 3.459-7.726 7.726-7.726 4.268 0 7.726 3.459 7.726 7.726v22.764c.001 4.267-3.458 7.727-7.726 7.727z"/><path d="m165.004 102.932c-4.268 0-7.726-3.459-7.726-7.726v-22.765c0-4.267 3.459-7.726 7.726-7.726s7.726 3.459 7.726 7.726v22.764c0 4.267-3.458 7.727-7.726 7.727z"/></g></g></g><g><circle cx="376.399" cy="172.367" fill="#e28086" r="135.601"/><path d="m406.069 304.709c-9.545 2.141-19.478 3.261-29.669 3.261-74.887 0-135.602-60.715-135.602-135.602s60.715-135.602 135.602-135.602c10.191 0 20.123 1.119 29.669 3.261-60.618 13.538-105.923 67.645-105.923 132.342s45.305 118.802 105.923 132.34z" fill="#dd636e"/><g fill="#26457d"><path d="m418.337 199.592c-1.977 0-3.955-.754-5.464-2.263-20.11-20.111-52.837-20.112-72.949 0-3.019 3.018-7.91 3.017-10.928 0-3.017-3.017-3.017-7.909 0-10.927 26.14-26.138 68.666-26.137 94.804 0 3.017 3.017 3.017 7.909 0 10.927-1.508 1.509-3.486 2.263-5.463 2.263z"/><g><path d="m346.996 136.83c-4.268 0-7.726-3.459-7.726-7.726v-22.764c0-4.267 3.459-7.726 7.726-7.726s7.726 3.459 7.726 7.726v22.764c0 4.267-3.458 7.726-7.726 7.726z"/><path d="m405.803 136.83c-4.268 0-7.726-3.459-7.726-7.726v-22.764c0-4.267 3.459-7.726 7.726-7.726s7.726 3.459 7.726 7.726v22.764c0 4.267-3.459 7.726-7.726 7.726z"/></g></g></g><g><circle cx="217.131" cy="323.707" fill="#c0e3a0" r="135.601"/><path d="m246.802 456.049c-9.545 2.141-19.478 3.261-29.669 3.261-74.887 0-135.602-60.715-135.602-135.602s60.715-135.602 135.602-135.602c10.191 0 20.123 1.119 29.669 3.261-60.618 13.538-105.923 67.645-105.923 132.342s45.305 118.802 105.923 132.34z" fill="#a8d4a4"/><g fill="#26457d"><path d="m217.131 362.648c-17.166 0-34.332-6.534-47.401-19.603-3.017-3.017-3.017-7.909 0-10.927 3.018-3.018 7.909-3.018 10.928 0 20.111 20.112 52.838 20.111 72.949 0 3.019-3.018 7.91-3.017 10.928 0 3.017 3.017 3.017 7.909 0 10.927-13.071 13.069-30.237 19.603-47.404 19.603z"/><g><path d="m187.728 288.171c-4.268 0-7.726-3.459-7.726-7.726v-22.765c0-4.267 3.459-7.726 7.726-7.726 4.268 0 7.726 3.459 7.726 7.726v22.764c.001 4.267-3.458 7.727-7.726 7.727z"/><path d="m246.535 288.171c-4.268 0-7.726-3.459-7.726-7.726v-22.765c0-4.267 3.459-7.726 7.726-7.726 4.268 0 7.726 3.459 7.726 7.726v22.764c.001 4.267-3.458 7.727-7.726 7.727z"/></g></g></g><path d="m444.719 365.314c3.777-7.613.667-16.839-6.946-20.616l-23.82-11.799c-7.612-3.777-16.839-.667-20.616 6.946l-47.137 95.104-22.954-38.39c-4.362-7.297-13.798-9.671-21.095-5.309l-22.814 13.635c-7.285 4.362-9.671 13.798-5.309 21.095l45.231 75.657c2.888 4.829 8.185 7.706 13.798 7.484l32.064-1.263c5.625-.222 10.676-3.496 13.167-8.536z" fill="#9dc6fb"/></g></svg>